<svg viewBox="0 0 1090 1024" version="1.1" xmlns="http://www.w3.org/2000/svg" width="15" height="15"><path d="M546.816 73.728q25.6 0 49.152 10.24t40.448 28.16 27.136 41.472 10.24 50.176q0 38.912-19.968 69.632t-51.712 47.104q-11.264 31.744-11.264 65.536 0 37.888 13.824 75.264t37.888 67.584 56.32 49.152 69.12 18.944q31.744 0 59.904-15.36t51.2-39.424 38.912-54.272 23.04-59.904q-27.648-13.312-45.056-39.936t-17.408-59.392q0-22.528 8.192-41.984t22.528-33.792 33.792-23.04 40.96-8.704 40.96 8.704 33.792 23.04 22.528 33.792 8.192 41.984q0 32.768-16.896 58.88t-43.52 39.424q-5.12 51.2-15.36 104.448t-25.6 105.984-35.84 101.888-45.056 90.112q-84.992 31.744-176.128 48.64t-187.392 16.896-186.88-16.896-176.64-48.64q-24.576-40.96-45.056-90.112t-35.84-101.888-26.112-105.984-14.848-104.448q-26.624-13.312-42.496-39.424t-15.872-58.88q0-22.528 8.192-41.984t22.016-33.792 32.768-23.04 40.448-8.704 40.96 8.704 33.792 23.04 22.528 33.792 8.192 41.984q0 33.792-17.408 60.416t-45.056 38.912q7.168 30.72 23.04 60.928t38.912 54.784 51.2 39.936 59.904 15.36q36.864 0 69.12-18.944t56.832-49.152 38.4-68.096 13.824-75.776q0-35.84-14.336-69.632-28.672-17.408-46.592-47.616t-17.92-66.048q0-26.624 10.24-50.176t27.648-41.472 40.448-28.16 49.664-10.24z" fill="#ffffff"></path></svg>
